<mxfile host="app.diagrams.net" modified="2023-04-15T07:38:32.113Z" agent="Mozilla/5.0 (Windows NT 10.0; Win64; x64) AppleWebKit/537.36 (KHTML, like Gecko) Chrome/112.0.0.0 Safari/537.36 Edg/112.0.1722.39" version="21.1.8" etag="xdGRE5JnHW_ERXlPX6Uk" type="github">
  <diagram name="第 1 页" id="gS3Eg-y9kIx_vQjpnmBV">
    <mxGraphModel>
      <root>
        <mxCell id="0" />
        <mxCell id="1" parent="0" />
      </root>
    </mxGraphModel>
  </diagram>
</mxfile>
